<svg width="48" height="23" viewBox="0 0 48 23" xmlns="http://www.w3.org/2000/svg"><title>Logo 2GIS</title><desc>Created with Sketch.</desc><g fill="none"><path d="M12.432 0c4.256.009 8.054 2.673 9.512 6.672 1.458 3.999.266 8.482-2.985 11.229 2.37-4.208 1.484-9.499-2.128-12.706-3.611-3.207-8.97-3.461-12.869-.611 1.868-2.86 5.053-4.583 8.469-4.583z" id="Shape" fill="#00B2DD"/><path d="M13.681 3.314c-3.26-1.263-6.939-.779-9.761 1.285-2.081 3.153-2.262 7.193-.473 10.52 1.79 3.327 5.261 5.402 9.039 5.403 2.177.003 4.297-.69 6.051-1.978 1.769-2.576 2.249-5.826 1.299-8.803-.949-2.978-3.221-5.35-6.155-6.426z" id="Shape" fill="#A6CE39"/><path d="M19.146 9.337c0 3.669-3.738 6.503-5.913 8.373h5.824l-.171.337-.38.603-.57.54-1.528 1.332h-7.308l-.022-2.131c4.376-3.802 7.055-6.375 7.055-8.857 0-.922-.351-2.089-1.934-2.089-1.253 0-2.462.725-2.243 3.76h-2.551c-.637-3.519 1.275-6.308 4.925-6.308 2.988 0 4.82 1.868 4.82 4.441h-.004z" id="Shape" fill="#fff"/><path d="M18.537 18.543c-3.122 2.264-7.245 2.6-10.693.872-3.448-1.728-5.646-5.232-5.701-9.088-.002-2.017.601-3.988 1.731-5.658-3.412 2.713-4.737 7.286-3.303 11.403 1.434 4.117 5.312 6.878 9.672 6.885 2.703 0 5.702-.92 8.379-4.451.185-.214.322-.466.402-.737-.149.268-.308.525-.478.771l-.008.002z" id="Shape" fill="#F9EC00"/><path fill="#414042" d="M37.444 19.752h-2.422v-13.894h2.422v13.894zM37.444 19.752h-2.422v-13.894h2.422v13.894zM47.827 16.083c0-5.423-6.254-3.615-6.254-6.652 0-.912.603-1.607 1.667-1.607 1.271 0 2.065.803 1.906 2.422h2.382c.201-1.589-.418-4.567-4.189-4.567-2.342 0-4.25 1.151-4.25 3.693 0 5.24 6.252 3.535 6.214 6.69-.02 1.153-.874 1.727-1.926 1.727-1.149 0-2.085-.715-1.924-2.719h-2.38c-.201 2.838 1.072 4.864 4.388 4.864 2.8 0 4.368-1.55 4.368-3.85l-.002-.002zM30.555 10.205h2.422c.078-1.569-.516-4.565-4.348-4.565-2.812 0-4.862 1.906-4.862 5.423 0 .476.02 2.41.02 3.932 0 3.816 2.641 4.963 5.121 4.963 1.072 0 2.759-.179 3.892-1.47v-5.881h-4.368v2.304h1.944v2.723c-1.468.496-4.135.629-4.135-2.745v-4.043c0-2.209.958-3.121 2.149-3.121 1.271 0 2.165.739 2.165 2.488v-.008z"/></g></svg>