<svg width="372" height="30" viewBox="0 0 372 30" xmlns="http://www.w3.org/2000/svg"><title>F7ACB748-CB4D-4192-A1D9-D48DD7B66E32</title><desc>Created with sketchtool.</desc><g fill="none"><path d="M.52 26h3.64v-7.672h3.752c4.004 0 6.132-2.408 6.132-5.964 0-3.556-2.128-5.964-6.132-5.964h-7.392v19.6zm3.64-11.032v-5.208h3.612c1.708 0 2.576.896 2.576 2.632 0 1.736-.868 2.604-2.576 2.604l-3.612-.028zm12.936 11.032h12.404v-3.36h-8.764v-5.404h6.804v-3.36h-6.804v-4.116h8.484v-3.36h-12.124v19.6zm19.936 0l7.196-12.936v12.936h3.64v-19.6h-3.836l-7.196 12.936v-12.936h-3.64v19.6h3.836zm.196-25.088c0 1.652 1.316 3.052 3.276 3.052 1.96 0 3.304-1.372 3.304-3.052h-2.548c0 .476-.308.812-.728.812-.476 0-.756-.336-.756-.812h-2.548zm13.384 8.848h5.432v16.24h3.64v-16.24h5.432v-3.36h-14.504v3.36zm17.248 16.24h3.836l7.196-12.936v12.936h3.64v-19.6h-3.836l-7.196 12.936v-12.936h-3.64v19.6zm19.712 0h3.64v-8.792h7.84v8.792h3.64v-19.6h-3.64v7.448h-7.84v-7.448h-3.64v19.6zm20.16 0h3.64v-16.24h8.512v-3.36h-12.152v19.6zm20.664-3.472v6.944h3.528v-3.472h10.472v3.472h3.136v-6.944h-1.316v-16.128h-11.284l-2.744 16.128h-1.792zm5.376 0l2.352-12.768h4.452v12.768h-6.804zm14.28-6.328c0 6.776 4.284 10.024 9.268 10.024 4.816 0 9.212-3.052 9.212-9.996 0-6.72-4.2-9.996-9.24-9.996-4.816 0-9.268 3.108-9.268 10.024l.028-.056zm3.696.056c0-4.424 2.38-6.664 5.516-6.664s5.544 2.24 5.544 6.664c0 4.452-2.408 6.692-5.544 6.692-3.136 0-5.544-2.24-5.544-6.664l.028-.028zm18.648 9.744h3.64v-12.096l3.752 10.304h2.632l3.752-10.304v12.096h3.64v-19.6h-4.088l-4.62 12.236-4.62-12.236h-4.088v19.6zm21.28-9.8c0 6.776 4.284 10.024 9.268 10.024 4.816 0 9.212-3.052 9.212-9.996 0-6.72-4.2-9.996-9.24-9.996-4.816 0-9.268 3.108-9.268 10.024l.028-.056zm3.696.056c0-4.424 2.38-6.664 5.516-6.664s5.544 2.24 5.544 6.664c0 4.452-2.408 6.692-5.544 6.692-3.136 0-5.544-2.24-5.544-6.664l.028-.028zm18.648 9.744h7.308c4.004 0 6.468-2.1 6.468-5.88 0-2.408-.98-4.004-2.94-4.816 1.232-.616 1.932-2.016 1.932-3.612 0-3.472-2.212-5.292-5.6-5.292h-7.168v19.6zm3.64-3.36v-5.264h3.332c2.128 0 3.164.868 3.164 2.632 0 1.736-1.036 2.604-3.164 2.604l-3.332.028zm.028-8.652v-4.256h3.22c1.624 0 2.408.588 2.408 2.156 0 1.54-.784 2.128-2.296 2.128l-3.332-.028zm41.888 12.012h1.848v-16.016l5.684 14.224h1.176l5.684-14.224v16.016h1.848v-19.6h-2.296l-5.824 14.756-5.824-14.756h-2.296v19.6zm20.72-9.8c0 2.996.84 5.432 2.492 7.252 1.68 1.848 3.696 2.744 6.104 2.744 2.38 0 4.396-.896 6.076-2.744 1.68-1.82 2.492-4.256 2.492-7.252 0-3.024-.812-5.432-2.492-7.252-1.68-1.848-3.696-2.772-6.104-2.772-2.38 0-4.424.924-6.104 2.772-1.652 1.82-2.492 4.228-2.492 7.252h.028zm1.904 0c0-2.632.616-4.676 1.876-6.132 1.26-1.456 2.856-2.156 4.788-2.156 1.932 0 3.5.7 4.76 2.156 1.26 1.456 1.904 3.5 1.904 6.132 0 2.632-.644 4.676-1.904 6.132-1.26 1.428-2.828 2.156-4.76 2.156s-3.528-.728-4.788-2.156c-1.26-1.456-1.904-3.5-1.904-6.132h.028zm18.592 0c0 3.22.84 5.684 2.548 7.42 1.68 1.736 3.724 2.604 6.132 2.604 1.848 0 3.388-.476 4.676-1.484 1.288-1.008 2.184-2.352 2.688-4.088l-1.82-.532c-.364 1.372-1.036 2.464-1.96 3.22-.952.784-2.156 1.148-3.612 1.148-2.044 0-3.668-.728-4.9-2.156-1.232-1.456-1.848-3.5-1.848-6.104s.616-4.648 1.848-6.104c1.232-1.456 2.856-2.184 4.872-2.184 1.456 0 2.632.392 3.584 1.148.952.784 1.596 1.848 1.96 3.276l1.82-.532c-.504-1.736-1.372-3.108-2.66-4.116-1.288-.98-2.856-1.484-4.704-1.484-1.12 0-2.184.196-3.22.616-1.008.448-1.904 1.036-2.744 1.82-.812.812-1.456 1.848-1.96 3.164-.476 1.316-.7 2.8-.7 4.424v-.056zm20.216 9.8h1.848v-10.388l8.428 10.388h2.268l-8.736-10.808 8.036-8.792h-2.352l-7.644 8.372v-8.372h-1.848v19.6zm15.82 0h6.748c1.848 0 3.304-.532 4.396-1.54 1.064-1.036 1.624-2.408 1.624-4.116 0-1.316-.336-2.408-.98-3.22-.644-.84-1.484-1.456-2.492-1.82.672-.308 1.232-.812 1.708-1.512.476-.672.728-1.456.728-2.324 0-1.596-.476-2.828-1.428-3.696-.952-.896-2.296-1.344-4.004-1.344h-6.3v19.572zm1.848-1.708v-7.812h4.536c1.456 0 2.576.28 3.304.896.756.588 1.12 1.596 1.12 2.996s-.364 2.38-1.12 2.996c-.728.588-1.848.896-3.304.896l-4.536.028zm0-9.604v-6.552h4.452c2.352 0 3.556 1.092 3.556 3.276 0 2.184-1.204 3.276-3.556 3.276h-4.452zm15.4 11.312h6.748c1.848 0 3.304-.504 4.396-1.54 1.064-1.008 1.624-2.38 1.624-4.116 0-1.708-.56-3.08-1.624-4.116-1.092-1.008-2.548-1.512-4.396-1.512h-4.9v-8.316h-1.848v19.6zm1.848-1.736v-7.812h4.536c1.484 0 2.576.28 3.332.896.728.588 1.092 1.596 1.092 2.996s-.364 2.38-1.092 2.996c-.756.588-1.848.896-3.332.896l-4.536.028zm14.168 1.708h1.736v-19.824h-1.736v19.824z" fill="#171817"/><path fill="#f00" d="M246 19.36l4.702 3.112-1.507-5.434 4.413-3.51-5.633-.246-1.975-5.282-1.975 5.282-5.633.246 4.413 3.51-1.507 5.434z"/></g></svg>