<svg width="256" height="35" viewBox="0 0 256 35" xmlns="http://www.w3.org/2000/svg"><title>Social Icons</title><desc>Created with Sketch.</desc><g fill="none"><path d="M165.092 33h-15.326c-.976 0-1.766-.791-1.766-1.766v-28.468c0-.976.791-1.766 1.766-1.766h28.468c.975 0 1.766.791 1.766 1.766v28.468c0 .975-.791 1.766-1.766 1.766h-8.154v-12.392h4.159l.623-4.829h-4.782v-3.083c0-1.398.388-2.351 2.393-2.351l2.557-.001v-4.319c-.442-.059-1.96-.19-3.727-.19-3.687 0-6.211 2.251-6.211 6.384v3.562h-4.17v4.829h4.17v12.392z" fill="#4460A0"/><path d="M83.571 28.721h2.391s.722-.08 1.091-.477c.339-.365.328-1.05.328-1.05s-.047-3.208 1.442-3.68c1.468-.465 3.353 3.1 5.35 4.471 1.511 1.037 2.659.81 2.659.81l5.342-.075s2.794-.173 1.469-2.369c-.108-.18-.772-1.625-3.972-4.595-3.35-3.109-2.901-2.606 1.134-7.983 2.457-3.275 3.439-5.274 3.132-6.13-.293-.816-2.1-.6-2.1-.6l-6.014.037s-.446-.061-.777.137c-.323.193-.531.645-.531.645s-.952 2.534-2.221 4.689c-2.678 4.547-3.749 4.788-4.187 4.505-1.019-.658-.764-2.643-.764-4.054 0-4.407.668-6.244-1.302-6.72-.654-.158-1.135-.262-2.807-.279-2.146-.022-3.962.007-4.991.51-.684.335-1.212 1.081-.89 1.125.398.053 1.298.243 1.775.892.616.839.595 2.721.595 2.721s.354 5.187-.827 5.832c-.81.442-1.923-.46-4.31-4.586-1.223-2.113-2.147-4.449-2.147-4.449s-.178-.436-.496-.67c-.385-.283-.924-.373-.924-.373l-5.716.037s-.858.024-1.173.397c-.28.332-.022 1.018-.022 1.018s4.474 10.467 9.541 15.742c4.646 4.837 9.921 4.52 9.921 4.52" fill="#4F76A1"/><path d="M10.145 0c-4.913 0-8.896 3.983-8.896 8.896s3.983 8.897 8.896 8.897 8.896-3.983 8.896-8.897c0-4.913-3.983-8.896-8.896-8.896zm-.12 20.361c3.745-.003 6.021-1.749 6.043-1.767 1.042-.836 2.565-.668 3.4.374.836 1.042.668 2.565-.374 3.4-.113.091-2.247 1.777-5.809 2.503l5.376 5.328c.945.944.947 2.475.003 3.421-.944.945-2.475.947-3.421.003l-5.219-5.083-4.74 5.05c-.475.492-1.108.74-1.741.74-.604 0-1.209-.225-1.679-.678-.962-.927-.99-2.459-.062-3.42l5.103-5.333c-3.661-.708-5.884-2.439-5.998-2.531-1.042-.836-1.21-2.358-.374-3.4.836-1.042 2.358-1.21 3.4-.374.022.018 2.346 1.764 6.091 1.767h.002zm.12-7.787c-2.031 0-3.678-1.647-3.678-3.678 0-2.031 1.647-3.678 3.678-3.678 2.031 0 3.678 1.647 3.678 3.678 0 2.031-1.647 3.678-3.678 3.678z" fill="#EB8C2F"/><path d="M256 7.157c-1.176.535-2.442.898-3.77 1.059 1.356-.832 2.397-2.151 2.887-3.723-1.27.77-2.673 1.331-4.172 1.631-1.195-1.308-2.902-2.124-4.791-2.124-3.623 0-6.563 3.014-6.563 6.732 0 .528.056 1.04.169 1.533-5.456-.281-10.293-2.958-13.533-7.036-.565.998-.888 2.155-.888 3.388 0 2.334 1.159 4.395 2.921 5.603-1.074-.033-2.089-.339-2.975-.84v.083c0 3.263 2.263 5.984 5.269 6.601-.55.158-1.131.237-1.73.237-.423 0-.836-.04-1.236-.119.836 2.673 3.259 4.621 6.133 4.673-2.246 1.807-5.079 2.883-8.154 2.883-.53 0-1.054-.031-1.566-.092 2.906 1.907 6.358 3.022 10.064 3.022 12.077 0 18.679-10.256 18.679-19.153 0-.293-.006-.586-.017-.873 1.283-.95 2.397-2.134 3.274-3.484" fill="#00AAEC"/></g></svg>